<svg id="Layer_1" data-name="Layer 1" xmlns="http://www.w3.org/2000/svg" xmlns:xlink="http://www.w3.org/1999/xlink" viewBox="0 0 799.97 800"><defs><style>.cls-1{fill:#f9f9f9;}.cls-2{fill:url(#instagradient);}.cls-3{fill:url(#instagradient-2);}.cls-4{fill:url(#instagradient-3);}</style><linearGradient id="instagradient" x1="256.83" y1="269.59" x2="543.73" y2="269.59" gradientUnits="userSpaceOnUse"><stop offset="0" stop-color="#fec053"/><stop offset="0.33" stop-color="#f2203e"/><stop offset="0.65" stop-color="#b729a8"/><stop offset="1" stop-color="#5342d6"/></linearGradient><linearGradient id="instagradient-2" x1="292.94" y1="297.02" x2="412.25" y2="297.02" xlink:href="#instagradient"/><linearGradient id="instagradient-3" x1="400.18" y1="261.32" x2="428.41" y2="261.32" xlink:href="#instagradient"/></defs><title>icon</title><rect class="cls-1" width="799.97" height="800"/><path d="M73.47,610.49v-98.1H97.3v98.1Z" transform="translate(0.97)"/><path d="M160.9,610.49V572.8a30.62,30.62,0,0,0-.48-5.54,15.36,15.36,0,0,0-1.59-4.64,8.3,8.3,0,0,0-3.12-3.19,9.89,9.89,0,0,0-5.06-1.18,11.51,11.51,0,0,0-5.33,1.18,10.8,10.8,0,0,0-3.81,3.26,14.74,14.74,0,0,0-2.29,4.78,20.54,20.54,0,0,0-.76,5.61v37.41H115.59v-69h22V551h.28a22.86,22.86,0,0,1,3.26-4.37,19.56,19.56,0,0,1,4.71-3.67,29.35,29.35,0,0,1,5.89-2.49,23.23,23.23,0,0,1,6.79-1A25.51,25.51,0,0,1,170.32,542a22.51,22.51,0,0,1,7.83,6.44,25.4,25.4,0,0,1,4.3,9.08,41.13,41.13,0,0,1,1.32,10.25v42.68Z" transform="translate(0.97)"/><path d="M240.85,561.85a25.38,25.38,0,0,0-6.51-4.43,18,18,0,0,0-7.9-1.8,13.88,13.88,0,0,0-5.89,1.25,4.37,4.37,0,0,0-2.7,4.3,4.27,4.27,0,0,0,3,4.16,64.78,64.78,0,0,0,9.63,2.77,52.29,52.29,0,0,1,7.83,2.36,27.75,27.75,0,0,1,7.14,4,19.27,19.27,0,0,1,5.13,6.1,17.89,17.89,0,0,1,1.94,8.59A20.69,20.69,0,0,1,243,607.44a29.55,29.55,0,0,1-9.49,4A45.53,45.53,0,0,1,223,612.7a52,52,0,0,1-16.56-2.7,34.74,34.74,0,0,1-13.51-8l12.75-13.44a25.41,25.41,0,0,0,7.48,5.54,20.78,20.78,0,0,0,9.42,2.22A12.37,12.37,0,0,0,228,595a4.72,4.72,0,0,0,2.7-4.64q0-3.19-3.33-4.71A59.84,59.84,0,0,0,217,582.5a53.67,53.67,0,0,1-7.21-2.22,22.79,22.79,0,0,1-6.44-3.74,18.57,18.57,0,0,1-4.64-5.82,17.8,17.8,0,0,1-1.8-8.31,20.16,20.16,0,0,1,2.63-10.6,22.29,22.29,0,0,1,6.79-7.14,30.19,30.19,0,0,1,9.21-4.09,39.78,39.78,0,0,1,10-1.32,48.55,48.55,0,0,1,15.17,2.42A32.8,32.8,0,0,1,253.33,549Z" transform="translate(0.97)"/><path d="M289.63,558.38v26.43q0,4.87,1.87,7.3t6.72,2.43a24.06,24.06,0,0,0,3.53-.28,12.09,12.09,0,0,0,3.12-.83l.28,16.63a37.45,37.45,0,0,1-6,1.46,42.17,42.17,0,0,1-7.21.62,33.92,33.92,0,0,1-11.64-1.74,18,18,0,0,1-7.55-5,19.61,19.61,0,0,1-4.09-7.78,37.82,37.82,0,0,1-1.25-10.07V558.38H256.37V541.48h10.95V523.33h22.31v18.15h16.21v16.91Z" transform="translate(0.97)"/><path d="M314.85,550.9a39.79,39.79,0,0,1,14.2-8.73,48.67,48.67,0,0,1,16.56-2.91,44.29,44.29,0,0,1,14.76,2.15,22,22,0,0,1,9.77,6.65,28.39,28.39,0,0,1,5.47,11.36,67.16,67.16,0,0,1,1.73,16.28v34.78H356.55v-7.34h-.42a17.11,17.11,0,0,1-8,6.65,28.34,28.34,0,0,1-11.57,2.36A35.41,35.41,0,0,1,328,611a25.11,25.11,0,0,1-8.11-3.6,19.5,19.5,0,0,1-6-6.65,20.51,20.51,0,0,1-2.36-10.25q0-7.48,4.09-12.06a26.8,26.8,0,0,1,10.53-7.07,55.8,55.8,0,0,1,14.34-3.33,147.09,147.09,0,0,1,15.38-.83v-1.11q0-5.13-3.6-7.55a15.54,15.54,0,0,0-8.87-2.42,22.06,22.06,0,0,0-9.35,2.08,29.83,29.83,0,0,0-7.69,5Zm41.71,29.51h-2.91q-3.74,0-7.55.35a31.19,31.19,0,0,0-6.79,1.32,12.55,12.55,0,0,0-4.92,2.84,6.52,6.52,0,0,0-1.94,4.92,6,6,0,0,0,.9,3.33,7,7,0,0,0,2.29,2.22,9.66,9.66,0,0,0,3.19,1.18,18.29,18.29,0,0,0,3.46.35q6.93,0,10.6-3.81t3.67-10.32Z" transform="translate(0.97)"/><path d="M466.71,604a48.44,48.44,0,0,1-2.91,17.6,33.07,33.07,0,0,1-8.18,12.4,33.49,33.49,0,0,1-12.82,7.34,54.44,54.44,0,0,1-16.7,2.42A67.76,67.76,0,0,1,407.34,641a51.49,51.49,0,0,1-16.7-8L402,616.72a33.35,33.35,0,0,0,11,6.58,35.18,35.18,0,0,0,11.85,2.15q10,0,14.76-5.27t4.78-14V602H444a22.42,22.42,0,0,1-8.59,6.65,29.11,29.11,0,0,1-12.33,2.49,32.77,32.77,0,0,1-14-2.84,30.64,30.64,0,0,1-10.32-7.69,33.6,33.6,0,0,1-6.44-11.29,41.64,41.64,0,0,1-2.22-13.65A42.27,42.27,0,0,1,392.3,562a35,35,0,0,1,6.44-11.5,30.79,30.79,0,0,1,24.18-10.95,30.57,30.57,0,0,1,12.47,2.63,21.65,21.65,0,0,1,9.56,8.18h.28v-8.87h21.48ZM445.1,575.57a19.09,19.09,0,0,0-1.18-6.65,17,17,0,0,0-3.4-5.61,16.11,16.11,0,0,0-5.27-3.81,16.59,16.59,0,0,0-6.93-1.39,16.11,16.11,0,0,0-6.86,1.39,15.22,15.22,0,0,0-5.06,3.74,16.44,16.44,0,0,0-3.19,5.54,20.47,20.47,0,0,0-1.11,6.79,20,20,0,0,0,1.11,6.65,17.18,17.18,0,0,0,3.19,5.61,15.15,15.15,0,0,0,11.92,5.33,16.31,16.31,0,0,0,12.26-5.27,16.75,16.75,0,0,0,3.33-5.54A19.47,19.47,0,0,0,445.1,575.57Z" transform="translate(0.97)"/><path d="M528.79,560.19a17.83,17.83,0,0,0-3-.55q-1.45-.14-2.84-.14a16.23,16.23,0,0,0-7.69,1.66,15.68,15.68,0,0,0-5,4,15.17,15.17,0,0,0-2.7,5.11,17.09,17.09,0,0,0-.83,4.83v35.38H484V541.56h21.89v10h.28a22.49,22.49,0,0,1,7.48-8.65,19.27,19.27,0,0,1,11.22-3.35,26.27,26.27,0,0,1,2.7.14,10.57,10.57,0,0,1,2.15.42Z" transform="translate(0.97)"/><path d="M535,550.9a39.79,39.79,0,0,1,14.2-8.73,48.67,48.67,0,0,1,16.56-2.91,44.29,44.29,0,0,1,14.76,2.15,22,22,0,0,1,9.77,6.65,28.39,28.39,0,0,1,5.47,11.36,67.16,67.16,0,0,1,1.73,16.28v34.78H576.73v-7.34h-.42a17.11,17.11,0,0,1-8,6.65,28.34,28.34,0,0,1-11.57,2.36,35.4,35.4,0,0,1-8.59-1.11,25.11,25.11,0,0,1-8.11-3.6,19.49,19.49,0,0,1-6-6.65,20.51,20.51,0,0,1-2.36-10.25q0-7.48,4.09-12.06a26.8,26.8,0,0,1,10.53-7.07,55.8,55.8,0,0,1,14.34-3.33,147.09,147.09,0,0,1,15.38-.83v-1.11q0-5.13-3.6-7.55a15.54,15.54,0,0,0-8.87-2.42,22.06,22.06,0,0,0-9.35,2.08,29.85,29.85,0,0,0-7.69,5Zm41.71,29.51h-2.91q-3.74,0-7.55.35a31.19,31.19,0,0,0-6.79,1.32,12.54,12.54,0,0,0-4.92,2.84,6.52,6.52,0,0,0-1.94,4.92,6,6,0,0,0,.9,3.33,7,7,0,0,0,2.29,2.22,9.66,9.66,0,0,0,3.19,1.18,18.29,18.29,0,0,0,3.46.35q6.93,0,10.6-3.81t3.67-10.32Z" transform="translate(0.97)"/><path d="M701.86,610.49V572.8a36.84,36.84,0,0,0-.42-5.61,13.4,13.4,0,0,0-1.52-4.64,8.8,8.8,0,0,0-3-3.12,9.14,9.14,0,0,0-4.92-1.18,9.89,9.89,0,0,0-5.06,1.25,11.23,11.23,0,0,0-3.6,3.33,14.52,14.52,0,0,0-2.15,4.78,22.45,22.45,0,0,0-.69,5.61v37.27H657.79V571.13q0-6-2.36-9.42T648,558.25a9.62,9.62,0,0,0-8.38,4.3,18,18,0,0,0-3,10.53v37.41H613.73v-69h22V551H636a24.13,24.13,0,0,1,3.12-4.3,19.77,19.77,0,0,1,4.5-3.67,25.23,25.23,0,0,1,5.89-2.56,25,25,0,0,1,7.14-1,24.68,24.68,0,0,1,12.68,3,20.9,20.9,0,0,1,8.11,8.73,26.28,26.28,0,0,1,8.87-8.59,25.5,25.5,0,0,1,13.16-3.19,24.84,24.84,0,0,1,11.85,2.56,22.07,22.07,0,0,1,7.69,6.65,27.67,27.67,0,0,1,4.23,9.15,39.28,39.28,0,0,1,1.32,9.91v42.68Z" transform="translate(0.97)"/><path class="cls-2" d="M543.69,248.21c0-28.12-10.73-53.12-32.7-76.44-7.6-8.06-17-13.41-26-18.57l-2.86-1.64Q468.63,143.8,455.17,136q-14.79-8.56-29.61-17.09-3.61-2.08-7.22-4.18c-7.86-4.57-16-9.3-24.28-13.49-13.12-6.63-25.59-6.64-37.07,0l-19.86,11.41c-20.34,11.68-41.38,23.76-62,35.76a34.32,34.32,0,0,0-9.11,7.94c-6.11,7.47-9,16.69-9.07,29-.08,12.9-.07,26-.05,38.67q0,8.15,0,16.31h0q0,7.6,0,15.19c0,11.25.09,22.89-.1,34.31A101.67,101.67,0,0,0,269.39,340c10.62,19.82,24.14,34,41.32,43.47,9,4.91,17.95,10.17,26.64,15.25q5.86,3.42,11.73,6.83l15.29,8.82c12.25,7.06,24.91,14.36,37.33,21.6,8,4.63,15.94,7,23.9,7s15.83-2.3,23.66-6.89c8-4.69,16-9.54,23.84-14.23,6.73-4,13.68-8.23,20.55-12.29,4.46-2.63,9-5.25,13.47-7.78,5.88-3.36,12-6.83,17.87-10.41a38.25,38.25,0,0,0,9.73-8.38c6.06-7.42,8.89-16.65,8.92-29.05C543.75,320.63,543.74,287.59,543.69,248.21Zm-20,72.38q0,17.26,0,34.53c0,5.9-1.25,10.64-3.79,14.49l-.07.1a10.39,10.39,0,0,1-2,2.54c-4.22,2.67-8.51,5.26-12.7,7.76q0-14,0-28c.06-28.15.12-57.26-.19-85.88-.19-17-5.72-33.58-17.43-52.11-9.7-15.36-22.88-27.51-40.28-37.16-16.72-9.27-33.54-19.08-49.81-28.56-8.53-5-17.35-10.11-26.06-15.12-4.9-2.82-9.94-5.53-14.82-8.15l-.57-.3c3.14-1.75,6.39-3.56,9.51-5.59C371,115.54,376.9,115.19,383,118c7.22,3.4,14.35,7.5,21.24,11.46l2.52,1.45c13.8,7.92,27.81,16,41.36,23.83q16.91,9.76,33.83,19.51c13.63,7.83,24.46,20,33.11,37.24a81.1,81.1,0,0,1,8.84,37.92C523.68,273.17,523.71,297.28,523.73,320.59Zm-38.49-35.74q0,46.82,0,93.64c0,5.76-1.23,10.42-3.73,14.24l-.13.19a10,10,0,0,1-.66.94c-6.64,3.92-13.37,7.83-19.9,11.61q0-1.1,0-2.21c.11-6.82.21-13.27.22-19.87q0-15.09,0-30.19c0-18.59-.1-37.82.12-56.71s-4.93-37.13-15.73-55.41c-10.07-17-24.57-30.59-44.33-41.44-18.15-10-36.36-20.6-54-30.88-8.29-4.84-16.86-9.84-25.33-14.72-2.54-1.46-5.07-2.83-7.71-4.23l5.11-3c.85-.49,1.72-1,2.59-1.43,1.73-.93,3.51-1.9,5.24-3.06,5.25-3.53,10.91-3.85,17.81-1a83.6,83.6,0,0,1,9.86,5l2.44,1.41c22.64,13,46,26.49,69,39.88,2.25,1.31,4.56,2.61,6.79,3.86,7,3.91,14.19,8,20.16,13,18.24,15.29,29,35.25,32.06,59.31a35.43,35.43,0,0,1,.14,4.81c0,.59,0,1.17,0,1.76Zm-44,47q0,6.73.06,13.45a4,4,0,0,0-.18,1.19q0,7.69,0,15.39c0,14.15.07,28.78-.17,43.15a27.86,27.86,0,0,1-2.76,10.59c-2.57,5.69-8.37,8.51-15.15,7.36-6-1-11.27-4.1-16.83-7.35l-2.33-1.36-23.72-13.69q-31-17.89-62-35.75c-12.71-7.32-23-18.68-31.51-34.73a82.69,82.69,0,0,1-10-40.38c.2-21.47.18-43.28.16-64.38,0-13,0-26.38,0-39.57a46,46,0,0,1,1.19-10.28,14.85,14.85,0,0,1,6.91-9.9,14.69,14.69,0,0,1,7.34-1.86,19.61,19.61,0,0,1,5.81.92,64.83,64.83,0,0,1,12.44,5.83c29,16.62,59.87,34.33,90.32,52.1,12,7,21.62,17.66,30.14,33.47a82.42,82.42,0,0,1,10.31,42.18C441.08,309.5,441.15,320.88,441.21,331.88Z" transform="translate(0.97)"/><path class="cls-3" d="M370.88,240.73c-9.87-8.78-20-14.23-31.1-16.68-18.91-4.19-35.68,4.43-42.73,22a59.88,59.88,0,0,0-4.11,22.83q0,.16,0,.31.12,1.44.22,2.88c.18,2.31.36,4.69.59,7.05a53.59,53.59,0,0,0,.84,5.42c5,24.73,16.86,46.54,35.29,64.84,9.93,9.86,20.36,16.31,31.91,19.72a46,46,0,0,0,13,2A35,35,0,0,0,392,366.73c8.68-4.82,14.91-13.28,18-24.47a67.82,67.82,0,0,0,.91-30.69A122.7,122.7,0,0,0,370.88,240.73Zm21.75,85.71c-.17,1-.32,2-.49,3.08a63.46,63.46,0,0,1-1.93,9.44C387,349,379.85,353,369.39,350.52c-10-2.39-18.94-8.08-28.18-17.9-15.59-16.56-24.94-35.53-27.81-56.37-1.11-8.09-.66-15,1.39-21.13,2.68-8,8.36-12.37,15.72-12.37a22.35,22.35,0,0,1,6.21.94c10.91,3.16,20.51,9.82,30.2,21,13.18,15.15,21.43,32.23,24.52,50.76.35,2.12.56,4.37.8,7C392.36,323.63,392.48,325,392.63,326.44Z" transform="translate(0.97)"/><path class="cls-4" d="M416.66,246.5c-1.51-1-6.09-4-11.25-1.14s-5.18,8.06-5.23,10.91a4,4,0,0,0,0,.57c1,8.24,5,14.89,11.36,19.22a12.42,12.42,0,0,0,7,2.41,9.72,9.72,0,0,0,5-1.41c2.51-1.49,5.38-4.62,4.79-11A25,25,0,0,0,416.66,246.5Z" transform="translate(0.97)"/><path d="M133.28,731.38a45.19,45.19,0,0,1-11.53,4.16,58.59,58.59,0,0,1-12.25,1.28,34.92,34.92,0,0,1-12.25-2.08,28,28,0,0,1-9.69-6,27.05,27.05,0,0,1-6.37-9.41,34.45,34.45,0,0,1,0-24.66,27,27,0,0,1,6.37-9.41,28.06,28.06,0,0,1,9.69-6,34.92,34.92,0,0,1,12.25-2.08A45.41,45.41,0,0,1,122,678.89a24.55,24.55,0,0,1,10,5.65l-8.81,9.61a17.58,17.58,0,0,0-5.77-4,20.55,20.55,0,0,0-8-1.36,18.56,18.56,0,0,0-7.25,1.36,16.28,16.28,0,0,0-5.56,3.8,16.69,16.69,0,0,0-3.56,5.8,22.13,22.13,0,0,0,0,14.61,16.76,16.76,0,0,0,3.56,5.77,16.25,16.25,0,0,0,5.56,3.8,18.54,18.54,0,0,0,7.25,1.36,23.86,23.86,0,0,0,7-.92,26.58,26.58,0,0,0,4.72-1.88v-9.21H111.1V701.75h22.18Z" transform="translate(0.97)"/><path d="M166.35,730.5h-.16a11.3,11.3,0,0,1-5.32,4.48,18.31,18.31,0,0,1-7,1.36,18.07,18.07,0,0,1-5.24-.76,13.22,13.22,0,0,1-4.44-2.28,11,11,0,0,1-3-3.76,11.48,11.48,0,0,1-1.12-5.21,11.92,11.92,0,0,1,1.24-5.68,11.11,11.11,0,0,1,3.36-3.84,16.71,16.71,0,0,1,4.84-2.36,35.4,35.4,0,0,1,5.65-1.24,54.06,54.06,0,0,1,5.85-.48q2.92-.08,5.4-.08a6.25,6.25,0,0,0-2.28-5.08,8.24,8.24,0,0,0-5.4-1.88,11.77,11.77,0,0,0-5.4,1.24,14.76,14.76,0,0,0-4.36,3.4l-6.41-6.57a22,22,0,0,1,7.85-4.68,28,28,0,0,1,9.29-1.56,24.28,24.28,0,0,1,8.69,1.32,12.64,12.64,0,0,1,5.44,3.88A15,15,0,0,1,176.6,707a41.3,41.3,0,0,1,.8,8.61v19.78h-11Zm-3-12.17q-1.36,0-3.4.12a17.27,17.27,0,0,0-3.92.68,8.73,8.73,0,0,0-3.2,1.68,3.88,3.88,0,0,0-1.32,3.12,3.43,3.43,0,0,0,1.84,3.2,7.7,7.7,0,0,0,3.84,1,12.06,12.06,0,0,0,3.4-.48,10.15,10.15,0,0,0,2.92-1.36,6.58,6.58,0,0,0,2-2.24,6.46,6.46,0,0,0,.76-3.2v-2.56Z" transform="translate(0.97)"/><path d="M184.28,674.85h12v60.53h-12Z" transform="translate(0.97)"/><path d="M204.3,674.85h12v60.53h-12Z" transform="translate(0.97)"/><path d="M261,728.65a19.16,19.16,0,0,1-7.29,5.68,21.83,21.83,0,0,1-9.13,2,24.52,24.52,0,0,1-8.45-1.44,20.31,20.31,0,0,1-6.89-4.12,19.33,19.33,0,0,1-4.6-6.45,21.86,21.86,0,0,1,0-16.81,19.35,19.35,0,0,1,4.6-6.45,20.33,20.33,0,0,1,6.89-4.12,24.52,24.52,0,0,1,8.45-1.44,19.22,19.22,0,0,1,7.57,1.44,15.77,15.77,0,0,1,5.77,4.12,18.81,18.81,0,0,1,3.64,6.45,26,26,0,0,1,1.28,8.41v3.76H235a9.5,9.5,0,0,0,3.12,5.48,8.83,8.83,0,0,0,5.93,2,9,9,0,0,0,5-1.32,13.46,13.46,0,0,0,3.56-3.4Zm-10.17-17.13a7,7,0,0,0-2-5.21,7.12,7.12,0,0,0-5.36-2.16,9,9,0,0,0-3.52.64,8.87,8.87,0,0,0-2.6,1.64,7.2,7.2,0,0,0-1.68,2.32,7.63,7.63,0,0,0-.68,2.76Z" transform="translate(0.97)"/><path d="M269.31,696.46h12v6.25h.16a14.77,14.77,0,0,1,4.56-5.41,11.54,11.54,0,0,1,6.65-1.8c.69,0,1.39,0,2.08.08a10.44,10.44,0,0,1,1.92.32v11a18.27,18.27,0,0,0-2.52-.6,16.42,16.42,0,0,0-2.6-.2,12.76,12.76,0,0,0-5.44,1,7.23,7.23,0,0,0-3.08,2.68,10.19,10.19,0,0,0-1.4,4.12,40.1,40.1,0,0,0-.32,5.29v16.25h-12Z" transform="translate(0.97)"/><path d="M323.52,741.7q-1.2,3.12-2.32,5.53a13.28,13.28,0,0,1-2.84,4,11.08,11.08,0,0,1-4.36,2.48,23.59,23.59,0,0,1-7,.84,28.17,28.17,0,0,1-9-1.44l1.6-9.85a13.75,13.75,0,0,0,5.6,1.2,10.3,10.3,0,0,0,3.28-.44,5.46,5.46,0,0,0,2.12-1.28,7.11,7.11,0,0,0,1.4-2q.56-1.2,1.2-2.8l.88-2.24L297.1,696.46h13l10,25.7h.16l8.57-25.7h12.33Z" transform="translate(0.97)"/><path d="M411.12,722l12.65,13.37H408.31L403.59,730a21.92,21.92,0,0,1-7.57,5.2,24.51,24.51,0,0,1-9.09,1.6,26.72,26.72,0,0,1-7.45-1,19.87,19.87,0,0,1-6.45-3.16,15.58,15.58,0,0,1-4.52-5.32,15.79,15.79,0,0,1-1.68-7.45,14.52,14.52,0,0,1,.92-5.17,15.69,15.69,0,0,1,2.56-4.44,18.2,18.2,0,0,1,3.8-3.48,19.61,19.61,0,0,1,4.72-2.36q-1.36-1.52-2.52-2.88a17.34,17.34,0,0,1-2-2.88,13.79,13.79,0,0,1-1.28-3.2,14.83,14.83,0,0,1-.44-3.76,13.54,13.54,0,0,1,1.48-6.57,13.09,13.09,0,0,1,4-4.48,16.73,16.73,0,0,1,5.68-2.56,27,27,0,0,1,6.57-.8,22.78,22.78,0,0,1,6.25.84,15.77,15.77,0,0,1,5.24,2.56,12.75,12.75,0,0,1,3.64,4.32,13.23,13.23,0,0,1,1.36,6.21,12.92,12.92,0,0,1-.84,4.72,16.41,16.41,0,0,1-2.28,4,18.87,18.87,0,0,1-3.32,3.36,25.45,25.45,0,0,1-4,2.6l7.29,7.77,5.52-7.53H423ZM386.29,711.2q-1.2.72-2.36,1.48a13.08,13.08,0,0,0-2.08,1.68,7.39,7.39,0,0,0-1.48,2.12,6.56,6.56,0,0,0-.56,2.8,6.34,6.34,0,0,0,.64,2.88,6.73,6.73,0,0,0,1.68,2.16,8.43,8.43,0,0,0,5.28,1.92,9.39,9.39,0,0,0,4.84-1.2,26.46,26.46,0,0,0,4-3Zm3.84-24.34a5.65,5.65,0,0,0-3.92,1.44,4.92,4.92,0,0,0-1.6,3.84,4.67,4.67,0,0,0,.48,2,11.75,11.75,0,0,0,1.16,1.92,13.1,13.1,0,0,0,1.52,1.72q.84.8,1.56,1.44,1-.56,2.08-1.32a15.93,15.93,0,0,0,2.08-1.68,9.43,9.43,0,0,0,1.6-2,4.41,4.41,0,0,0,.64-2.28,4.6,4.6,0,0,0-1.64-3.8A6.12,6.12,0,0,0,390.14,686.86Z" transform="translate(0.97)"/><path d="M446.18,678.69H459.8l9,36.35H469l11.85-36.35h11.61L504.24,716h.16l9.53-37.31h12.65L510,735.38H498.87l-12.49-39.23h-.16l-12.49,39.23H463Z" transform="translate(0.97)"/><path d="M529.06,684.21a7,7,0,1,1,2,4.92A6.71,6.71,0,0,1,529.06,684.21Zm1,12.25h12v38.91H530Z" transform="translate(0.97)"/><path d="M590.71,735.38h-11v-5.12h-.16a13.29,13.29,0,0,1-1.88,2.12,14.23,14.23,0,0,1-2.72,2,16.66,16.66,0,0,1-3.44,1.44,13.56,13.56,0,0,1-3.88.56,20.06,20.06,0,0,1-7.85-1.48,17.48,17.48,0,0,1-6-4.16,18.54,18.54,0,0,1-3.88-6.37,23.12,23.12,0,0,1-1.36-8.09,24.47,24.47,0,0,1,1.24-7.81,21.45,21.45,0,0,1,3.52-6.61,17.21,17.21,0,0,1,5.57-4.6,15.79,15.79,0,0,1,7.45-1.72,20.68,20.68,0,0,1,7,1.16,11.22,11.22,0,0,1,5.32,4h.16V674.85h12Zm-11-19.46a10.07,10.07,0,0,0-2.52-7.13,10.58,10.58,0,0,0-14.17,0A11.33,11.33,0,0,0,563,723a10.58,10.58,0,0,0,14.17,0A10.06,10.06,0,0,0,579.66,715.92Z" transform="translate(0.97)"/><path d="M640.35,732.1q0,11.05-5.56,16.77t-16.94,5.73a45.57,45.57,0,0,1-10.25-1.16,23.19,23.19,0,0,1-9.29-4.52L605,739a25.18,25.18,0,0,0,5.88,3.68,16.57,16.57,0,0,0,6.77,1.36q5.52,0,8.13-2.68a9.43,9.43,0,0,0,2.6-6.85v-3.76h-.16a11.33,11.33,0,0,1-5.16,4,16.52,16.52,0,0,1-5.8,1.16,20,20,0,0,1-7.85-1.48,17.48,17.48,0,0,1-6-4.16,18.54,18.54,0,0,1-3.88-6.37,23.12,23.12,0,0,1-1.36-8.09,23.37,23.37,0,0,1,1.24-7.53,20.54,20.54,0,0,1,3.52-6.49,17.68,17.68,0,0,1,5.57-4.52,15.79,15.79,0,0,1,7.45-1.72,18.11,18.11,0,0,1,8.49,2,14,14,0,0,1,2.88,2,12.47,12.47,0,0,1,1.92,2.12h.16v-5.12h11Zm-30.27-16.41a9.38,9.38,0,0,0,2.76,6.69,10.55,10.55,0,0,0,3,2.12,8.89,8.89,0,0,0,3.8.8,9,9,0,0,0,3.76-.8,10.4,10.4,0,0,0,3.08-2.12,9.45,9.45,0,0,0,0-13.37,10.42,10.42,0,0,0-3.08-2.12,9,9,0,0,0-3.76-.8,8.91,8.91,0,0,0-3.8.8,10.57,10.57,0,0,0-3,2.12,9.38,9.38,0,0,0-2.76,6.69Z" transform="translate(0.97)"/><path d="M686,728.65a19.15,19.15,0,0,1-7.29,5.68,21.84,21.84,0,0,1-9.13,2,24.52,24.52,0,0,1-8.45-1.44,20.31,20.31,0,0,1-6.89-4.12,19.34,19.34,0,0,1-4.6-6.45,21.87,21.87,0,0,1,0-16.81,19.35,19.35,0,0,1,4.6-6.45,20.33,20.33,0,0,1,6.89-4.12,24.52,24.52,0,0,1,8.45-1.44,19.22,19.22,0,0,1,7.57,1.44,15.77,15.77,0,0,1,5.77,4.12,18.82,18.82,0,0,1,3.64,6.45,26,26,0,0,1,1.28,8.41v3.76H660a9.5,9.5,0,0,0,3.12,5.48,8.83,8.83,0,0,0,5.92,2,9,9,0,0,0,5-1.32,13.45,13.45,0,0,0,3.56-3.4Zm-10.17-17.13a7,7,0,0,0-2-5.21,7.12,7.12,0,0,0-5.37-2.16,9,9,0,0,0-3.52.64,8.87,8.87,0,0,0-2.6,1.64,7.2,7.2,0,0,0-1.68,2.32,7.63,7.63,0,0,0-.68,2.76Z" transform="translate(0.97)"/><path d="M720.82,706.07H710.25v13a24.25,24.25,0,0,0,.16,2.92,5.88,5.88,0,0,0,.72,2.28,3.63,3.63,0,0,0,1.72,1.48,7.62,7.62,0,0,0,3.08.52,20.7,20.7,0,0,0,2.52-.2,4.27,4.27,0,0,0,2.36-.92v10a18.18,18.18,0,0,1-4.16,1,38.42,38.42,0,0,1-4.24.24,23.1,23.1,0,0,1-5.61-.64,12.75,12.75,0,0,1-4.48-2,9.55,9.55,0,0,1-3-3.64,12.45,12.45,0,0,1-1.08-5.45v-18.5h-7.69v-9.61h7.69V684.94h12v11.53h10.57Z" transform="translate(0.97)"/></svg>